# xmcd
#
# Track frame offsets: 
#        150
#        16074
#        29266
#        43925
#        53983
#        65308
#        80779
#        93215
#        108146
#        120690
#        133142
#        143960
#        158452
#        172832
#        187542
#        204042
#
# Disc length: 2868 seconds
#
# Revision: 6
# Processed by: cddbd v1.5.2PL0 Copyright (c) Steve Scherf et al.
# Submitted via: ExactAudioCopy v0.99pb5
#
DISCID=c20b3210
DTITLE=Frank Sinatra - Duplex Collection
DYEAR=2008
DGENRE=Jazz
TTITLE0=I've Got You Under My Skin
TTITLE1=Come Fly With Me
TTITLE2=I Get A Kick Out Of You
TTITLE3=Love And Marriage
TTITLE4=My Funny Valentine
TTITLE5=Mood Indigo
TTITLE6=All Of Me
TTITLE7=Embraceable You
TTITLE8=Can't We Be Friends?
TTITLE9=All The Things You Are
TTITLE10=Jeepers Creepers
TTITLE11=Nancy
TTITLE12=I Only Have Eyes For You
TTITLE13=Autumn In New York
TTITLE14=Night And Day
TTITLE15=Blue Skies
EXTD=YEAR: 2008
EXTT0=
EXTT1=
EXTT2=
EXTT3=
EXTT4=
EXTT5=
EXTT6=
EXTT7=
EXTT8=
EXTT9=
EXTT10=
EXTT11=
EXTT12=
EXTT13=
EXTT14=
EXTT15=
PLAYORDER=
